# Blender v2.91.2 OBJ File: ''
# www.blender.org
mtllib log.mtl
o Logs
v 0.755400 0.283900 -2.087700
v 0.744700 0.598200 1.092900
v -24.216900 0.844900 0.760400
v -24.244600 0.326400 -2.053000
v 1.069400 2.533601 -4.152999
v -23.930599 2.486201 -3.999200
v 0.854300 5.524500 -4.234599
v -24.145700 5.678401 -3.960799
v 0.846500 8.303700 -2.676799
v -24.182199 8.053400 -1.977699
v 0.648900 8.508700 0.514501
v -24.376200 8.287400 1.064201
v 0.653200 5.866899 3.119701
v -24.346800 6.117199 3.134701
v 0.871500 2.784199 2.988101
v -24.133600 3.232899 2.877301
v -49.346802 5.374400 2.992901
v -49.376202 7.537700 0.428801
v -49.182201 7.304501 -3.108899
v -49.255299 0.341600 0.888600
v -49.145699 5.232301 -4.737799
v -48.930599 2.277201 -4.389900
v -49.244598 0.187100 -2.172100
v -49.128502 2.492399 2.994500
v 50.755402 0.166900 -2.188600
v 51.069401 2.160501 -4.493400
v 50.854301 5.199501 -4.781499
v 50.871498 2.467799 2.980201
v 50.817799 7.543200 -2.440399
v 50.623798 7.500400 0.387301
v 50.653198 5.612400 2.723901
v 50.744701 0.222200 0.789300
v 25.708000 -0.123500 1.260800
v 25.755400 0.223500 -2.139300
v 26.069401 2.270701 -4.513500
v 25.854300 5.376501 -4.473999
v 25.817801 7.576500 -2.404599
v 25.623800 7.794000 0.640401
v 25.653200 5.638800 2.743001
v 25.896400 2.170200 3.213900
v 26.621201 8.425900 0.411101
vt 0.069400 0.500000
vt 0.000000 0.500000
vt 0.000000 0.250000
vt 0.069400 0.250000
vt 0.128300 0.500000
vt 0.128300 0.250000
vt 0.187100 0.500000
vt 0.187100 0.250000
vt 0.256500 0.500000
vt 0.256500 0.250000
vt 0.318400 0.500000
vt 0.325900 0.250000
vt 0.384800 0.500000
vt 0.384800 0.250000
vt 0.443700 0.500000
vt 0.439000 0.250000
vt 0.513100 0.500000
vt 0.513100 0.250000
vt 0.662100 0.317100
vt 0.663000 0.219700
vt 0.732600 0.151500
vt 0.827600 0.387600
vt 0.829900 0.152500
vt 0.898100 0.222000
vt 0.897200 0.319400
vt 0.730300 0.386600
vt 0.732900 0.922400
vt 0.664700 0.852900
vt 0.665700 0.755500
vt 0.899800 0.855200
vt 0.735200 0.687300
vt 0.832600 0.688300
vt 0.900800 0.757800
vt 0.830300 0.923400
vt 0.069400 1.000000
vt 0.000000 1.000000
vt 0.000000 0.750000
vt 0.069400 0.750000
vt 0.000000 0.000000
vt 0.069400 0.000000
vt 0.128300 1.000000
vt 0.128300 0.750000
vt 0.128300 0.000000
vt 0.187100 1.000000
vt 0.187100 0.750000
vt 0.187100 0.000000
vt 0.256500 1.000000
vt 0.256500 0.750000
vt 0.256500 0.000000
vt 0.325900 1.000000
vt 0.325900 0.750000
vt 0.325900 0.000000
vt 0.384800 1.000000
vt 0.384800 0.750000
vt 0.384800 0.000000
vt 0.443700 1.000000
vt 0.450600 0.750000
vt 0.443700 0.000000
vt 0.513100 1.000000
vt 0.513100 0.750000
vt 0.513100 0.000000
vn -0.0085 -0.9354 -0.3536
vn -0.0147 -0.8892 0.4574
vn 0.0067 -0.8723 0.4890
vn 0.0066 -0.9462 -0.3234
vn -0.0100 -0.3735 -0.9276
vn 0.0021 -0.3553 -0.9347
vn -0.0002 0.2444 -0.9697
vn -0.0019 0.3445 -0.9388
vn 0.0097 0.8471 -0.5313
vn -0.0142 0.8925 -0.4507
vn 0.0114 0.9361 0.3515
vn -0.0191 0.9320 0.3619
vn 0.0052 0.3621 0.9321
vn -0.0108 0.3372 0.9414
vn -0.0133 -0.3694 0.9292
vn -0.0007 -0.3908 0.9205
vn -0.9996 -0.0295 -0.0035
vn -0.9961 -0.0726 -0.0498
vn -0.9989 -0.0361 -0.0308
vn -0.9999 -0.0001 -0.0124
vn -0.9960 -0.0653 0.0608
vn -0.9991 -0.0084 -0.0425
vn -0.9904 0.1377 -0.0104
vn -0.9879 -0.0748 0.1358
vn 0.9995 -0.0129 0.0272
vn 0.9738 0.0888 0.2095
vn 0.9986 0.0180 0.0496
vn 0.9998 0.0135 0.0112
vn 0.9964 -0.0520 0.0676
vn 0.9986 0.0417 0.0318
vn 0.9963 0.0729 0.0464
vn 0.9981 -0.0610 0.0047
vn 0.0049 -0.9340 -0.3572
vn 0.0161 -0.9161 0.4007
vn -0.0086 -0.9268 0.3756
vn -0.0090 -0.9199 -0.3921
vn 0.0129 -0.9122 0.4095
vn 0.0114 -0.9425 -0.3341
vn -0.0014 -0.4553 -0.8903
vn -0.0089 -0.4108 -0.9117
vn 0.0257 -0.4477 -0.8938
vn -0.0023 0.3283 -0.9446
vn -0.0079 0.3741 -0.9274
vn 0.0267 0.2784 -0.9601
vn -0.0012 0.9219 -0.3875
vn 0.0103 0.9019 -0.4318
vn -0.0058 0.8821 -0.4711
vn 0.0091 0.9438 0.3303
vn 0.0166 0.9342 0.3563
vn -0.0300 0.9477 0.3177
vn 0.0081 0.4540 0.8910
vn 0.0109 0.4380 0.8989
vn -0.0125 0.4240 0.9056
vn 0.0091 -0.3389 0.9408
vn 0.0062 -0.2893 0.9572
vn 0.0123 -0.3775 0.9259
usemtl Material__30
s 1
f 1/1/1 2/2/2 3/3/3 4/4/4
f 5/5/5 1/1/1 4/4/4 6/6/6
f 7/7/7 5/5/5 6/6/6 8/8/8
f 9/9/9 7/7/7 8/8/8 10/10/10
f 11/11/11 9/9/9 10/10/10 12/12/12
f 13/13/13 11/11/11 12/12/12 14/14/14
f 15/15/15 13/13/13 14/14/14 16/16/16
f 2/17/2 15/15/15 16/16/16 3/18/3
f 17/19/17 18/20/18 19/21/19 20/22/20
f 19/21/19 21/23/21 22/24/22 20/22/20
f 22/24/22 23/25/23 20/22/20
f 24/26/24 17/19/17 20/22/20
f 25/27/25 26/28/26 27/29/27 28/30/28
f 27/29/27 29/31/29 30/32/30 28/30/28
f 30/32/30 31/33/31 28/30/28
f 32/34/32 25/27/25 28/30/28
f 25/35/33 32/36/34 33/37/35 34/38/36
f 34/38/36 33/37/35 2/2/2 1/1/1
f 20/39/37 23/40/38 4/4/4 3/3/3
f 26/41/39 25/35/33 34/38/36 35/42/40
f 35/42/40 34/38/36 1/1/1 5/5/5
f 23/40/38 22/43/41 6/6/6 4/4/4
f 27/44/42 26/41/39 35/42/40 36/45/43
f 36/45/43 35/42/40 5/5/5 7/7/7
f 22/43/41 21/46/44 8/8/8 6/6/6
f 29/47/45 27/44/42 36/45/43 37/48/46
f 37/48/46 36/45/43 7/7/7 9/9/9
f 21/46/44 19/49/47 10/10/10 8/8/8
f 30/50/48 29/47/45 37/48/46 38/51/49
f 38/51/49 37/48/46 9/9/9 11/11/11
f 19/49/47 18/52/50 12/12/12 10/10/10
f 31/53/51 30/50/48 38/51/49 39/54/52
f 39/54/52 38/51/49 11/11/11 13/13/13
f 18/52/50 17/55/53 14/14/14 12/12/12
f 28/56/54 31/53/51 39/54/52 40/57/55
f 40/57/55 39/54/52 13/13/13 15/15/15
f 17/55/53 24/58/56 16/16/16 14/14/14
f 32/59/34 28/56/54 40/57/55 33/60/35
f 33/60/35 40/57/55 15/15/15 2/17/2
f 24/58/56 20/61/37 3/18/3 16/16/16
